#!OML:ASF X:\für Bonn\!DataBase\2005_08_12_Daniel\c3d\Daniel.ASF
:FULLY-SPECIFIED
:DEGREES
124
root 1.65284 17.4688 17.934 176.54 -251.147 541.944
lowerback 4.89649 -5.31462 1.88343
upperback 0.995213 -7.06789 -5.82755
thorax -2.67926 -3.56099 -6.56856
lowerneck 10.4458 -11.1117 -6.68456
upperneck 7.95024 -15.5734 6.19941
head 1.91854 -7.91679 3.2703
rclavicle 5.06901e-015 0
rhumerus 26.3447 -11.4717 -22.7989
rradius 25.3597
rwrist 6.35438
rhand 10.8757 11.1552
rfingers 7.12502
rthumb 35.9564 -15.172
lclavicle 5.06901e-015 0
lhumerus -76.6629 58.611 11.2427
lradius 14.5776
lwrist -68.2009
lhand -9.53798 -4.95495
lfingers 7.12502
lthumb 16.4285 24.3694
rfemur 1.32035 23.1628 20.9254
rtibia 24.8138
rfoot -28.5017 -21.2459
rtoes -9.34496
lfemur -1.38861 1.04978 -8.76599
ltibia 39.5652
lfoot -18.6197 8.37892
ltoes -16.6887
125
root 1.64419 17.4666 17.9696 176.844 -251.245 542.2
lowerback 4.88948 -5.28912 1.8872
upperback 0.993355 -7.03308 -5.78324
thorax -2.66732 -3.54321 -6.52782
lowerneck 10.507 -11.1413 -6.58324
upperneck 7.86905 -15.594 6.06759
head 1.86075 -7.92498 3.21656
rclavicle -4.01545e-014 -1.27222e-014
rhumerus 26.3471 -11.3926 -22.4088
rradius 25.4884
rwrist 6.30331
rhand 12.1918 11.1196
rfingers 7.12502
rthumb 37.2021 -14.8924
lclavicle -4.01545e-014 -1.27222e-014
lhumerus -74.561 57.9248 14.0604
lradius 14.842
lwrist -65.5268
lhand -9.34275 -4.99906
lfingers 7.12502
lthumb 16.6165 24.3096
rfemur 1.27251 23.4413 21.0712
rtibia 24.9636
rfoot -28.8379 -21.5418
rtoes -9.20493
lfemur -1.39381 1.40016 -8.84583
ltibia 39.4766
lfoot -18.7415 9.09749
ltoes -16.1096
126
root 1.63482 17.4642 18.0057 177.131 -251.369 542.424
lowerback 4.88868 -5.27067 1.87068
upperback 0.967865 -7.00969 -5.72778
thorax -2.68105 -3.53178 -6.46102
lowerneck 10.623 -11.1623 -6.53196
upperneck 7.78671 -15.6115 5.96327
head 1.80041 -7.93363 3.18434
rclavicle -3.97569e-014 0
rhumerus 26.2151 -11.0941 -21.8764
rradius 25.7859
rwrist 6.02793
rhand 13.3435 10.9451
rfingers 7.12502
rthumb 38.2901 -14.7746
lclavicle -3.97569e-014 0
lhumerus -72.3471 57.0909 17.0833
lradius 15.1721
lwrist -62.7224
lhand -9.18556 -5.01458
lfingers 7.12502
lthumb 16.7678 24.2813
rfemur 1.21775 23.7624 21.2377
rtibia 25.1062
rfoot -29.2193 -21.8867
rtoes -9.13132
lfemur -1.43819 1.74445 -8.89156
ltibia 39.3899
lfoot -18.8418 9.73787
ltoes -15.4999
127
root 1.62782 17.4613 18.0423 177.409 -251.565 542.659
lowerback 4.86964 -5.26694 1.84234
upperback 0.963027 -7.00538 -5.68344
thorax -2.66568 -3.52883 -6.40023
lowerneck 10.733 -11.1899 -6.46669
upperneck 7.69312 -15.6363 5.86806
head 1.73761 -7.94548 3.15288
rclavicle 1.00883e-014 0
rhumerus 26.0224 -10.8481 -21.3725
rradius 26.109
rwrist 5.86832
rhand 14.3256 10.8659
rfingers 7.12502
rthumb 39.2165 -14.5918
lclavicle 1.00883e-014 0
lhumerus -70.3809 56.2753 19.8035
lradius 15.4692
lwrist -60.0951
lhand -9.15614 -5.03045
lfingers 7.12502
lthumb 16.7961 24.2631
rfemur 1.23424 24.1309 21.4503
rtibia 25.2365
rfoot -29.6837 -22.349
rtoes -8.93297
lfemur -1.4825 2.00458 -8.93641
ltibia 39.2985
lfoot -18.9239 10.2945
ltoes -14.9782
128
root 1.62223 17.4589 18.0802 177.694 -251.815 542.901
lowerback 4.83018 -5.27511 1.79943
upperback 0.967688 -7.01701 -5.64854
thorax -2.63054 -3.53318 -6.34208
lowerneck 10.7858 -11.2211 -6.43625
upperneck 7.67261 -15.6706 5.78712
head 1.71413 -7.9619 3.12522
rclavicle -2.22142e-014 1.90833e-014
rhumerus 25.77 -10.5979 -20.876
rradius 26.4772
rwrist 5.7732
rhand 15.112 10.7905
rfingers 7.12502
rthumb 39.9571 -14.4485
lclavicle -2.22142e-014 1.90833e-014
lhumerus -68.5927 55.4749 22.2902
lradius 15.7566
lwrist -57.639
lhand -9.16594 -5.07768
lfingers 7.12502
lthumb 16.7867 24.2166
rfemur 1.28084 24.5003 21.6837
rtibia 25.3577
rfoot -30.1864 -22.8537
rtoes -8.77872
lfemur -1.54365 2.20328 -8.97693
ltibia 39.2065
lfoot -18.9993 10.7796
ltoes -14.5461
129
root 1.61713 17.4567 18.116 177.992 -252.081 543.156
lowerback 4.7971 -5.28114 1.76095
upperback 0.975119 -7.02547 -5.61517
thorax -2.5964 -3.53596 -6.28794
lowerneck 10.7981 -11.2551 -6.44036
upperneck 7.66424 -15.7122 5.72869
head 1.70721 -7.98243 3.10723
rclavicle -8.10048e-015 0
rhumerus 25.4379 -10.2814 -20.3019
rradius 26.9274
rwrist 5.59398
rhand 15.7351 10.6678
rfingers 7.12502
rthumb 40.5431 -14.3921
lclavicle -8.10048e-015 0
lhumerus -67.0548 54.7342 24.5211
lradius 16.0795
lwrist -55.4071
lhand -9.23827 -5.09499
lfingers 7.12502
lthumb 16.7171 24.2052
rfemur 1.34262 24.9276 21.9281
rtibia 25.4668
rfoot -30.7372 -23.4034
rtoes -8.67174
lfemur -1.61272 2.38396 -9.013
ltibia 39.1046
lfoot -19.0237 11.2045
ltoes -14.27
130
root 1.61204 17.4547 18.1502 178.274 -252.343 543.384
lowerback 4.76634 -5.29089 1.73521
upperback 0.97138 -7.03901 -5.58323
thorax -2.57752 -3.54201 -6.24125
lowerneck 10.7847 -11.283 -6.47693
upperneck 7.70138 -15.7507 5.69472
head 1.7248 -8.00175 3.09919
rclavicle -1.32142e-013 -5.08889e-014
rhumerus 25.1202 -10.0441 -19.8258
rradius 27.3653
rwrist 5.54556
rhand 16.2517 10.6435
rfingers 7.12502
rthumb 41.0286 -14.2638
lclavicle -1.32142e-013 -5.08889e-014
lhumerus -65.7614 54.0492 26.4559
lradius 16.3898
lwrist -53.401
lhand -9.35485 -5.15038
lfingers 7.12502
lthumb 16.6048 24.1593
rfemur 1.39248 25.3547 22.1687
rtibia 25.5703
rfoot -31.2806 -23.9481
rtoes -8.49759
lfemur -1.69083 2.52032 -9.03903
ltibia 38.9954
lfoot -19.0079 11.5715
ltoes -14.211
